inDegrees=yes
name=ik_S44_A09_T02
DataType=double
version=3
OpenSimVersion=4.3-2021-08-27-4bc7ad9
endheader
time	pelvis_tilt	pelvis_list	pelvis_rotation	pelvis_tx	pelvis_ty	pelvis_tz	hip_flexion_r	hip_adduction_r	hip_rotation_r	knee_angle_r	knee_angle_r_beta	ankle_angle_r	subtalar_angle_r	mtp_angle_r	hip_flexion_l	hip_adduction_l	hip_rotation_l	knee_angle_l	knee_angle_l_beta	ankle_angle_l	subtalar_angle_l	mtp_angle_l	lumbar_extension	lumbar_bending	lumbar_rotation	arm_flex_r	arm_add_r	arm_rot_r	elbow_flex_r	pro_sup_r	wrist_flex_r	wrist_dev_r	arm_flex_l	arm_add_l	arm_rot_l	elbow_flex_l	pro_sup_l	wrist_flex_l	wrist_dev_l
6.979999999999939	-10.20546930802656	-4.45361067129311	29.67954106293389	0	0.9399999999999999	0	35.23924542075007	-10.64297151633803	-9.925611927550307	40.53978926862538	0.7075528008021768	0	0	0	35.23924542075007	-10.64297151633803	-9.925611927550307	40.53978926862538	0.7075528008021768	0	0	0	-9.447088061451259	-3.718450894664037	5.871179723534294	76.7653378498098	-18.1659708939836	12.8635114185877	39.57457892636263	116.7976522020005	0	0	77.97373174669376	15.82505086963404	1.610886697728387	20.83141981879769	113.2741400168545	0	0
6.999999999999939	-10.22054964539597	-4.441938264837088	29.68569525543403	0	0.9399999999999999	0	35.24214790122744	-10.64231400402804	-9.925660692051434	40.54276289967449	0.7076047004547233	0	0	0	35.24214790122744	-10.64231400402804	-9.925660692051434	40.54276289967449	0.7076047004547233	0	0	0	-9.459323071672248	-3.686742399232237	5.809550803695569	76.82500170058209	-17.98869543791274	13.09846504903457	39.4467290297683	116.8804001188712	0	0	77.96673567880552	15.50794771600994	1.504336207742792	21.04769313183776	113.4847566229607	0	0
7.019999999999938	-10.24462702932823	-4.428091232341991	29.67964991755459	0	0.9399999999999999	0	35.24468791430844	-10.64174511614641	-9.925703056160875	40.54539078587919	0.707650565721363	0	0	0	35.24468791430844	-10.64174511614641	-9.925703056160875	40.54539078587919	0.707650565721363	0	0	0	-9.478428132452471	-3.648178881048359	5.746188679329996	76.89710014411467	-17.78820110875513	13.22837520051942	39.3208240022798	116.9444379686444	0	0	78.02071015644609	15.42708078225889	1.401202721929424	21.15562710511194	113.194652288525	0	0
7.039999999999938	-10.27901426443781	-4.409630049399419	29.7019938951322	0	0.9399999999999999	0	35.24733269152446	-10.64114857965816	-9.925747374749667	40.54810835096816	0.7076979961798028	0	0	0	35.24733269152446	-10.64114857965816	-9.925747374749667	40.54810835096816	0.7076979961798028	0	0	0	-9.506948632964185	-3.593103795968346	5.648469904610343	77.1863835662755	-17.35159682602656	13.18883045197551	38.98064267050955	117.5039879365296	0	0	78.00288511911143	15.10768934757317	1.242335916433973	21.34698900621638	112.8234899976252	0	0
7.059999999999937	-10.32847576424339	-4.372522916514567	29.81748302184742	0	0.9399999999999999	0	35.2506507657473	-10.64041189262506	-9.925802415689436	40.55156418621867	0.7077583118833307	0	0	0	35.2506507657473	-10.64041189262506	-9.925802415689436	40.55156418621867	0.7077583118833307	0	0	0	-9.537794200020469	-3.517629620166229	5.569267185840376	77.46600791848159	-17.22483869733834	13.25371767208479	38.78554683633724	118.2179186466106	0	0	78.08202848630135	15.14626668330961	1.118044992029572	21.39596469370764	111.8774629635867	0	0
7.079999999999937	-10.3743935142996	-4.333439167949554	29.96506780646555	0	0.9399999999999999	0	35.25490989491449	-10.63944945121731	-9.925873891970138	40.55592731143274	0.7078344627839931	0	0	0	35.25490989491449	-10.63944945121731	-9.925873891970138	40.55592731143274	0.7078344627839931	0	0	0	-9.571615364603032	-3.422902574853154	5.403761717465499	77.77011582478274	-17.05607668125931	13.46223455252181	38.63382174891307	118.5179979877628	0	0	77.95801351290504	13.98089690761817	0.7248442024364856	21.89293286717211	110.0919801600333	0	0
7.099999999999937	-10.39080278962264	-4.310843632632253	30.22594843327792	0	0.9399999999999999	0	35.26160944493872	-10.63794245897308	-9.925986015144073	40.56281114132528	0.7079546082807651	0	0	0	35.26160944493872	-10.63794245897308	-9.925986015144073	40.56281114132528	0.7079546082807651	0	0	0	-9.595820898774738	-3.341935901911889	5.174185227831349	77.97480647885817	-16.90246282339028	13.70547484621872	38.4498984687545	118.6280743071324	0	0	77.99837004604312	13.58874380395409	0.4039322116339962	22.06904267463877	106.3494394251655	0	0
